<svg id="Layer_1" data-name="Layer 1" xmlns="http://www.w3.org/2000/svg" viewBox="0 0 42 42">
  <defs>
    <style>
      .cls-1 {
        fill: #858a90;
      }
    </style>
  </defs>
  <title>icons</title>
  <g id="Ob7duB.tif">
    <path class="cls-1" d="M41,37.17v.94A3.81,3.81,0,0,1,38.11,41h-.94a7.13,7.13,0,0,1-3.65-2.38c-2.34-2.37-4.71-4.72-7.06-7.07-.61-.61-.72-.63-1.48-.2a16,16,0,0,1-6.5,2,15,15,0,0,1-8.33-1.54,16,16,0,0,1-9-12.56C1.09,18.85,1,18.44,1,18V16.39A3.8,3.8,0,0,0,1.06,16,14.71,14.71,0,0,1,2.3,10.88,15.92,15.92,0,0,1,15.2,1.15L16.39,1H18a3,3,0,0,0,.34.06,15.26,15.26,0,0,1,5.17,1.23,16.06,16.06,0,0,1,8.82,9.07,15.27,15.27,0,0,1,.95,7.74,15.8,15.8,0,0,1-2,5.88c-.44.77-.41.87.2,1.48q3.88,3.88,7.76,7.76a6.2,6.2,0,0,1,1,1.27A13.41,13.41,0,0,1,41,37.17ZM17.23,5.23a12,12,0,1,0,12,12A12,12,0,0,0,17.23,5.23Z"/>
  </g>
</svg>
